<?xml version="1.0" encoding="UTF-8" standalone="no"?>
<svg
   xmlns:dc="http://purl.org/dc/elements/1.1/"
   xmlns:cc="http://creativecommons.org/ns#"
   xmlns:rdf="http://www.w3.org/1999/02/22-rdf-syntax-ns#"
   xmlns:svg="http://www.w3.org/2000/svg"
   xmlns="http://www.w3.org/2000/svg"
   xmlns:sodipodi="http://sodipodi.sourceforge.net/DTD/sodipodi-0.dtd"
   xmlns:inkscape="http://www.inkscape.org/namespaces/inkscape"
   version="1.1"
   width="623.12024"
   height="104"
   id="svg2"
   inkscape:version="1.0 (4035a4fb49, 2020-05-01)"
   sodipodi:docname="republiquefrancaise-horiz.svg">
  <metadata
     id="metadata11">
    <rdf:RDF>
      <cc:Work
         rdf:about="">
        <dc:format>image/svg+xml</dc:format>
        <dc:type
           rdf:resource="http://purl.org/dc/dcmitype/StillImage" />
        <dc:title></dc:title>
      </cc:Work>
    </rdf:RDF>
  </metadata>
  <sodipodi:namedview
     pagecolor="#ffffff"
     bordercolor="#666666"
     borderopacity="1"
     objecttolerance="10"
     gridtolerance="10"
     guidetolerance="10"
     inkscape:pageopacity="0"
     inkscape:pageshadow="2"
     inkscape:window-width="2880"
     inkscape:window-height="1526"
     id="namedview9"
     showgrid="false"
     fit-margin-top="0"
     fit-margin-left="0"
     fit-margin-right="0"
     fit-margin-bottom="0"
     inkscape:zoom="0.5"
     inkscape:cx="-894.91011"
     inkscape:cy="251.95334"
     inkscape:window-x="-11"
     inkscape:window-y="-11"
     inkscape:window-maximized="1"
     inkscape:current-layer="svg2"
     inkscape:document-rotation="0" />
  <defs
     id="defs4" />
  <rect
     width="307.60001"
     height="104"
     x="5.8593741e-07"
     y="0"
     id="rect6"
     style="fill:#ffffff;stroke:none;stroke-width:0.2" />
  <path
     d="m 561.2336,88.68419 c -0.1697,-0.0692 -0.1802,-0.25448 -0.038,-0.66352 0.1806,-0.51816 0.2639,-0.55863 0.9582,-0.4655 0.6298,0.0845 0.8151,0.024 1.0782,-0.35161 0.5059,-0.72232 0.1154,-1.24341 -0.8027,-1.07117 -0.7042,0.13211 -0.7152,0.1242 -0.5795,-0.41629 0.4308,-1.71657 0.4717,-1.62202 -0.812,-1.87658 -1.5283,-0.30303 -2.9905,-1.15908 -4.1136,-2.40827 -1.6864,-1.87571 -2.2713,-3.77319 -2.1032,-6.82346 0.086,-1.55387 0.218,-2.1597 0.7079,-3.24028 1.4994,-3.30688 4.9243,-4.99315 9.5277,-4.69103 0.9967,0.0654 2.2621,0.23512 2.8121,0.37713 l 1,0.25819 0.058,1.85 0.057,1.85 h -0.6075 c -0.3583,0 -0.6075,-0.10436 -0.6075,-0.25443 0,-0.51955 -1.2247,-1.72193 -2.0908,-2.0527 -1.1179,-0.42694 -3.2868,-0.32961 -4.3733,0.19625 -2.4832,1.20191 -3.6154,4.322 -2.8604,7.88272 0.3508,1.65436 0.9304,2.76412 2.0383,3.90309 1.0503,1.07959 2.1097,1.51536 3.6971,1.52068 1.6788,0.006 2.8541,-0.66896 3.5934,-2.06241 0.5022,-0.94676 0.6814,-1.0629 1.1659,-0.75588 0.2255,0.14289 0.2275,0.47207 0.013,1.99088 l -0.2576,1.81969 -0.9126,0.31535 c -0.5019,0.17345 -1.6551,0.36954 -2.5626,0.43577 -1.5647,0.11418 -1.65,0.14471 -1.65,0.5907 0,0.35606 0.1107,0.47029 0.4555,0.47029 0.668,0 1.2946,0.51729 1.4425,1.19088 0.1719,0.78263 -0.3851,1.94046 -1.115,2.31793 -0.528,0.27304 -2.5854,0.38096 -3.1185,0.16358 z M 442.2414,87.84247 c -1.7314,-0.51043 -3.2246,-1.28043 -5.0207,-2.58897 l -1.5516,-1.13048 -2.4,-0.1231 c -2.6611,-0.13649 -3.5909,-0.43355 -5.3124,-1.69721 -3.7921,-2.78368 -3.9298,-9.86739 -0.2588,-13.3152 2.7636,-2.59555 7.6254,-3.13184 11.125,-1.22715 4.7244,2.57138 5.226,10.157 0.9343,14.13037 -0.666,0.61659 -1.3183,1.12142 -1.4495,1.12185 -0.4088,0.001 4.2914,2.57242 5.6657,3.09925 1.5183,0.58205 3.2923,0.65983 4.5919,0.20133 0.9453,-0.33354 1.1069,-0.29357 1.2655,0.31306 0.093,0.35434 -0.069,0.50358 -1.0258,0.94668 -1.5082,0.69847 -4.6686,0.82826 -6.5636,0.26957 z m -5.8647,-6.18091 c 3.349,-1.7495 3.9865,-7.35213 1.2438,-10.93 -2.5417,-3.31579 -6.9967,-2.81383 -8.6712,0.97702 -1.5129,3.42509 0.2132,8.72029 3.2996,10.12194 1.2491,0.56729 2.8434,0.50204 4.1278,-0.16896 z m -105.1076,2.07271 c -0.9186,-0.40092 -1.9264,-1.6481 -3.519,-4.35483 -2.4468,-4.15838 -2.9053,-4.76764 -3.5884,-4.76764 h -0.5926 v 2.25 c 0.01,4.10661 0.4203,5.51194 1.715,5.83689 0.3463,0.0869 0.481,0.25967 0.481,0.61692 v 0.49619 h -4.1 -4.1 v -0.47107 c 0,-0.35676 0.1528,-0.51488 0.6296,-0.65164 0.3463,-0.0993 0.8188,-0.43399 1.05,-0.7437 0.4103,-0.54961 0.4204,-0.74966 0.4204,-8.33378 0,-7.58418 -0.01,-7.78416 -0.4204,-8.33358 -0.2312,-0.30961 -0.7037,-0.64419 -1.05,-0.74351 -0.4601,-0.13196 -0.6296,-0.29878 -0.6296,-0.61958 0,-0.43705 0.023,-0.43959 5.0798,-0.56972 5.3826,-0.1385 6.5687,-0.036 8.0859,0.69838 1.3254,0.64161 2.4301,2.58569 2.4332,4.2819 0,1.94191 -1.4407,4.13513 -3.3463,5.0819 l -0.9975,0.49559 2.2047,3.30441 c 2.5938,3.88747 3.4083,4.92595 4.1747,5.32225 0.7154,0.36995 0.7841,1.1769 0.1155,1.35609 -0.8044,0.21558 -3.4344,0.11722 -4.05,-0.15147 z m -5.0045,-11.14554 c 2.6812,-0.74435 3.5861,-4.47008 1.557,-6.41052 -0.9538,-0.91216 -1.9667,-1.24325 -3.2595,-1.06545 l -0.993,0.13658 v 3.78123 3.78123 l 0.95,-0.001 c 0.5225,-6e-4 1.308,-0.10049 1.7455,-0.22196 z m 46.081,11.14696 c -1.0962,-0.39171 -2.1297,-1.08924 -2.6768,-1.80658 -0.9944,-1.30367 -1.0988,-1.98911 -1.111,-7.29245 -0.013,-5.54312 -0.117,-6.15214 -1.1344,-6.62486 -0.4087,-0.1899 -0.6472,-0.4468 -0.6499,-0.7 0,-0.38448 0.1278,-0.4 3.3958,-0.4 3.3926,0 3.3999,0.001 3.3999,0.45 -1e-4,0.30232 -0.1199,0.45 -0.3652,0.45 -0.2008,0 -0.5833,0.23222 -0.85,0.51603 l -0.4849,0.51603 v 5.43397 c 0,5.11399 0.024,5.48061 0.4155,6.22604 0.6098,1.16256 1.8264,1.76056 3.3908,1.66682 1.6833,-0.10086 2.5938,-0.69781 3.2658,-2.14117 0.5158,-1.10754 0.5205,-1.1624 0.5242,-6.02647 0,-4.35552 -0.036,-4.9694 -0.3488,-5.44683 -0.1939,-0.29594 -0.5764,-0.59425 -0.85,-0.66292 -0.3106,-0.078 -0.4975,-0.26695 -0.4975,-0.50318 0,-0.35241 0.1849,-0.37832 2.7,-0.37832 2.5151,0 2.7,0.0259 2.7,0.37832 0,0.23556 -0.1865,0.42513 -0.4942,0.50236 -0.921,0.23116 -0.9945,0.6599 -1.1036,6.43431 l -0.1022,5.41498 -0.6021,1.17642 c -0.7106,1.38852 -1.8615,2.34853 -3.343,2.78848 -1.2497,0.37112 -4.1752,0.38751 -5.1784,0.029 z m 78,0 c -1.1083,-0.39606 -2.1315,-1.0916 -2.6976,-1.83383 -0.9428,-1.236 -1.0779,-2.15003 -1.0902,-7.37184 -0.013,-5.42921 -0.1202,-6.04701 -1.1344,-6.51822 -0.4087,-0.1899 -0.6472,-0.4468 -0.6499,-0.7 0,-0.38448 0.1277,-0.4 3.3958,-0.4 3.3604,0 3.3999,0.005 3.3999,0.43609 -1e-4,0.29303 -0.1411,0.45706 -0.43,0.5 -0.2365,0.0351 -0.619,0.31781 -0.85,0.62813 -0.3937,0.52875 -0.4242,0.85826 -0.4861,5.24116 -0.076,5.38472 0.074,6.52033 0.9867,7.4535 1.6505,1.68818 5.081,1.21662 6.0532,-0.83208 0.6123,-1.29029 0.7694,-2.90675 0.6941,-7.13953 -0.08,-4.48174 -0.2135,-5.04048 -1.2705,-5.30577 -0.3106,-0.078 -0.4975,-0.26695 -0.4975,-0.50318 0,-0.35241 0.1849,-0.37832 2.7,-0.37832 2.5086,0 2.7,0.0266 2.7,0.37574 0,0.22687 -0.232,0.47184 -0.5856,0.61831 -0.3221,0.13342 -0.6545,0.39183 -0.7387,0.57426 -0.084,0.18243 -0.2032,2.76857 -0.2644,5.74697 l -0.1113,5.41527 -0.6021,1.17614 c -0.7106,1.3882 -1.8618,2.3483 -3.343,2.78818 -1.2497,0.37112 -4.1752,0.38751 -5.1784,0.029 z m 63.306,-0.008 c -0.7994,-0.34806 -1.7503,-1.53326 -3.2215,-4.01549 -1.9001,-3.20563 -2.1159,-3.4948 -2.611,-3.49753 -0.4428,-0.002 -0.45,0.0373 -0.45,2.50395 0,2.9905 0.2497,3.83351 1.1912,4.0218 0.4733,0.0947 0.6088,0.22746 0.6088,0.59678 v 0.475 h -3.4 -3.4 v -0.475 c 0,-0.36932 0.1355,-0.5021 0.6089,-0.59678 1.1394,-0.22788 1.2201,-0.76947 1.1517,-7.73129 l -0.061,-6.16534 -0.4848,-0.5158 c -0.2667,-0.28368 -0.6492,-0.51579 -0.85,-0.51579 -0.2264,0 -0.3652,-0.14552 -0.3652,-0.38294 0,-0.32995 0.203,-0.40196 1.467,-0.52041 0.8069,-0.0756 3.0344,-0.10309 4.95,-0.0611 3.1144,0.0683 3.5712,0.1229 4.3162,0.51588 1.3234,0.69811 2.0668,2.0594 2.0668,3.7848 0,1.63898 -0.9396,3.07851 -2.6454,4.05272 -0.5446,0.311 -0.8963,0.62341 -0.7817,0.69423 0.1146,0.0708 0.9983,1.31858 1.9639,2.77278 1.8955,2.85475 2.9491,4.14401 3.3865,4.14401 0.3855,0 0.3514,0.92854 -0.04,1.0786 -0.5676,0.2178 -2.7688,0.11223 -3.4012,-0.16311 z m -3.6964,-9.40831 c 0.795,-0.4111 1.5756,-1.39981 1.7222,-2.18123 0.1883,-1.00335 -0.2533,-2.32691 -1.0165,-3.04666 -0.7067,-0.66652 -1.3894,-0.85763 -2.5708,-0.7197 l -0.721,0.0842 v 3.07812 3.07812 h 1.0099 c 0.5555,0 1.2648,-0.13177 1.5762,-0.29282 z m 89.0246,9.3737 c -0.5991,-0.16104 -1.1252,-0.32871 -1.1691,-0.3726 -0.044,-0.0439 -0.1901,-0.94122 -0.325,-1.99405 l -0.2453,-1.91423 h 0.5644 c 0.3104,0 0.5643,0.0746 0.5643,0.16571 0,0.52035 1.3125,2.05303 2.0735,2.42145 2.057,0.99579 4.5275,0.0583 4.5258,-1.71741 0,-1.16529 -0.567,-1.86178 -2.4941,-3.06975 -2.7039,-1.69496 -3.748,-2.58996 -4.2872,-3.67501 -0.5377,-1.08179 -0.6337,-2.7653 -0.2279,-3.99483 0.2678,-0.81155 1.5243,-2.02343 2.582,-2.49039 1.0649,-0.4701 4.3976,-0.45494 5.7779,0.0263 l 1.05,0.36607 v 1.78393 1.78393 h -0.5783 c -0.4489,0 -0.6062,-0.11104 -0.7029,-0.49634 -0.2096,-0.83528 -1.2818,-1.87828 -2.1791,-2.11992 -2.4007,-0.64642 -4.3234,1.81647 -2.8164,3.60748 0.2878,0.34205 1.5926,1.34664 2.8996,2.23244 2.5315,1.71579 3.4667,2.65009 3.7801,3.77634 0.6896,2.47827 -0.4558,4.6672 -2.9256,5.59129 -1.3253,0.49587 -4.1923,0.53965 -5.8667,0.0896 z M 336.9691,83.27301 c 0,-0.35452 0.112,-0.46081 0.4855,-0.46081 0.2863,0 0.6556,-0.21624 0.9,-0.52697 0.3994,-0.50774 0.4145,-0.75643 0.4145,-6.81315 0,-4.39553 -0.07,-6.41756 -0.2327,-6.72303 -0.2979,-0.55944 -0.7728,-0.92241 -1.2173,-0.93049 -0.2383,-0.004 -0.35,-0.16592 -0.35,-0.50636 v -0.5 h 6 6 v 2.11329 2.11328 l -0.5251,-0.0633 c -0.3955,-0.0477 -0.5806,-0.23143 -0.75,-0.74456 -0.3943,-1.19428 -1.0526,-1.49854 -3.4332,-1.58667 l -2.0917,-0.0774 v 2.84839 2.84838 l 1.6087,-0.0931 c 1.7532,-0.10149 2.6361,-0.52715 2.7552,-1.32833 0.047,-0.31718 0.2045,-0.42986 0.6,-0.42966 l 0.5361,2e-4 v 2.59975 2.59975 l -0.55,-3e-5 c -0.4436,-2e-5 -0.55,-0.0907 -0.55,-0.46903 0,-0.8931 -0.6669,-1.22414 -2.6207,-1.3009 l -1.7793,-0.0699 v 2.80856 c 0,3.38515 0.031,3.43124 2.3147,3.43124 2.252,0 3.426,-0.57035 4.0138,-1.95 0.297,-0.69728 0.9895,-0.89644 1.201,-0.3454 0.1395,0.36362 -0.4241,2.71156 -0.8475,3.53021 l -0.2996,0.57938 -5.7912,-0.0463 -5.7912,-0.0463 v -0.46081 z m 15.4,0.0642 c 0,-0.36583 0.1354,-0.50208 0.5891,-0.59282 1.0553,-0.21105 1.1054,-0.50719 1.1731,-6.93218 0.07,-6.68969 -0.015,-7.29228 -1.1079,-7.8 -0.4557,-0.21175 -0.6469,-0.43796 -0.65,-0.76899 v -0.469 l 4.55,0.0829 c 4.9196,0.0897 5.321,0.16743 6.6544,1.28939 1.4654,1.23306 1.8452,3.68549 0.8532,5.50822 -0.8653,1.58978 -2.3613,2.434 -4.7461,2.67833 l -1.2492,0.12799 -0.3104,-0.77443 -0.3104,-0.77443 0.7391,-0.1081 c 0.9389,-0.13734 1.9585,-0.73195 2.4985,-1.4571 0.3072,-0.41241 0.4172,-0.84491 0.4072,-1.6 -0.026,-1.94739 -1.1207,-3.1384 -3.0303,-3.29676 l -1.0807,-0.0896 0.062,6.67579 c 0.068,7.28059 0.1002,7.48518 1.2123,7.71309 0.414,0.0848 0.55,0.23018 0.55,0.5877 v 0.475 h -3.4 -3.4 v -0.475 z m 33.2,-0.0731 c 0,-0.30975 0.1189,-0.45192 0.3779,-0.45192 0.2078,0 0.5903,-0.17194 0.85,-0.38208 l 0.4721,-0.38209 0.061,-6.19905 c 0.068,-6.93945 -0.01,-7.46331 -1.1571,-7.89668 -0.3601,-0.13593 -0.6035,-0.37142 -0.6035,-0.58395 0,-0.32378 0.2772,-0.36069 3.05,-0.40615 5.8366,-0.0957 7.0581,-0.0302 8.0073,0.42934 1.2305,0.59566 1.8054,1.45805 1.9069,2.86023 0.046,0.63022 0.027,1.3672 -0.041,1.63773 -0.1971,0.78506 -1.1293,1.74374 -2.16,2.22126 l -0.9527,0.4414 0.807,0.24177 c 1.9282,0.57771 3.1576,2.59397 2.9029,4.76099 -0.215,1.82903 -0.9999,2.85763 -2.8208,3.69656 -0.9563,0.4406 -1.2118,0.46081 -5.85,0.46264 l -4.85,0.002 v -0.45192 z m 8.8204,-1.5059 c 1.0194,-0.68096 1.424,-1.60828 1.3105,-3.00312 -0.1709,-2.09847 -1.6366,-3.3429 -3.9373,-3.3429 h -1.2224 l 0.064,3.01813 c 0.062,2.89299 0.084,3.03396 0.5366,3.4 0.6907,0.55863 2.3595,0.52158 3.2482,-0.0721 z m -0.8259,-8.31056 c 1.2279,-0.47054 1.8741,-1.43186 1.7463,-2.59791 -0.1716,-1.56681 -1.4342,-2.43755 -3.5344,-2.43755 h -1.2064 v 2.7 2.7 l 1.05,-0.0109 c 0.5775,-0.006 1.4525,-0.16513 1.9445,-0.35366 z m 8.2056,9.82783 c -1e-4,-0.32324 0.1377,-0.45316 0.5301,-0.5 0.2981,-0.0356 0.714,-0.31051 0.95,-0.62795 0.405,-0.54476 0.4198,-0.78099 0.4198,-6.7 0,-4.91726 -0.056,-6.23461 -0.2827,-6.63534 -0.3532,-0.6248 -0.8131,-0.98538 -1.2673,-0.99364 -0.2277,-0.004 -0.35,-0.16354 -0.35,-0.45636 0,-0.45 0,-0.45 3.6,-0.45 3.6,0 3.6,0 3.6,0.45 0,0.31237 -0.1189,0.45 -0.3888,0.45 -0.2139,0 -0.6414,0.21711 -0.95,0.48246 l -0.5612,0.48245 -0.058,6.30767 -0.058,6.30767 0.5119,0.33535 c 0.4051,0.26546 0.8382,0.31646 2.0781,0.24469 1.9031,-0.11018 2.7944,-0.58116 3.3246,-1.75688 0.3527,-0.78224 0.726,-0.97222 1.2529,-0.6377 0.1978,0.12558 0.1655,0.49512 -0.1513,1.73404 -0.2215,0.86595 -0.5418,1.78677 -0.7118,2.04627 l -0.3092,0.47183 -5.5895,-0.0589 -5.5895,-0.0589 z m 13.9999,0.0617 c 0,-0.36931 0.1355,-0.50209 0.6089,-0.59677 1.1043,-0.22086 1.1912,-0.76638 1.1904,-7.4718 0,-5.56856 -0.026,-5.9984 -0.3938,-6.60106 -0.2162,-0.35455 -0.6209,-0.70181 -0.8993,-0.77168 -0.3445,-0.0865 -0.5062,-0.26389 -0.5062,-0.55537 0,-0.42096 0.058,-0.42832 3.4,-0.42832 3.3416,0 3.4,0.007 3.4,0.42832 0,0.28949 -0.1612,0.46879 -0.4975,0.55318 -0.2736,0.0687 -0.6561,0.36688 -0.85,0.66269 -0.3172,0.48405 -0.3525,1.1488 -0.3525,6.64683 0,6.79056 0.082,7.33528 1.1287,7.54472 0.436,0.0872 0.5713,0.22679 0.5713,0.58926 v 0.475 h -3.4 -3.4 z m 47.8,-0.0362 c 0,-0.32899 0.1524,-0.46929 0.6089,-0.56059 1.1046,-0.22094 1.1911,-0.76479 1.1911,-7.49223 0,-5.89319 -0.01,-5.98636 -0.4569,-6.65642 -0.2512,-0.37377 -0.6562,-0.70834 -0.9,-0.74349 -0.3184,-0.0459 -0.4431,-0.2007 -0.4431,-0.55 v -0.48609 h 5.9 5.9 v 2.1 c 0,2.08058 0,2.1 -0.4777,2.1 -0.3866,0 -0.5025,-0.13203 -0.6075,-0.69173 -0.2231,-1.18881 -1.04,-1.58799 -3.4311,-1.6765 l -2.0234,-0.0749 -0.1301,0.94948 c -0.072,0.52221 -0.1302,1.80461 -0.1302,2.84976 v 1.90027 l 1.7015,-0.10615 c 1.8733,-0.11687 2.6147,-0.44658 2.817,-1.25276 0.09,-0.35648 0.2604,-0.49747 0.6032,-0.49747 h 0.4783 v 2.6 2.6 h -0.5 c -0.3404,0 -0.502,-0.11169 -0.5063,-0.35 -0.018,-0.98994 -0.9698,-1.45 -2.9997,-1.45 h -1.6323 l 0.069,2.81631 c 0.084,3.41166 0.063,3.38369 2.4651,3.38369 2.1196,0 3.2219,-0.50778 3.7989,-1.75 0.2907,-0.62565 0.5119,-0.85 0.8382,-0.85 0.2439,0 0.5042,0.0984 0.5786,0.21875 0.1823,0.29492 -0.7049,3.54598 -1.0662,3.90734 -0.2385,0.2385 -1.2541,0.28011 -5.9664,0.24448 l -5.679,-0.0429 z m 22,0.0473 c 0,-0.32791 0.1864,-0.54778 0.6357,-0.75 0.3497,-0.15736 0.8222,-0.54024 1.05,-0.85086 0.4017,-0.54764 0.4143,-0.7933 0.4143,-8.1 0,-8.47628 -0.016,-8.57841 -1.3965,-9.03409 -0.5472,-0.18057 -0.7035,-0.33984 -0.7035,-0.71666 v -0.48449 h 7 7 v 2.5 2.5 h -0.6 c -0.4887,0 -0.6001,-0.0835 -0.6007,-0.45 0,-0.736 -0.7544,-1.75104 -1.5537,-2.09396 -0.4729,-0.20292 -1.5683,-0.35398 -2.9956,-0.41313 l -2.25,-0.0932 v 3.42516 3.42517 l 1.65,-0.0113 c 2.1992,-0.015 2.9519,-0.28795 3.4165,-1.23871 0.2988,-0.61156 0.4742,-0.75 0.95,-0.75 h 0.5835 v 3.01267 3.01267 l -0.6421,-0.0627 c -0.4411,-0.043 -0.6759,-0.18794 -0.75,-0.46267 -0.3172,-1.17638 -1.5412,-1.7 -3.9738,-1.7 h -1.2787 l 0.082,3.55 c 0.093,4.05133 0.2634,4.64341 1.4612,5.07654 0.5254,0.18999 0.7019,0.36943 0.7019,0.71364 v 0.45982 h -4.1 -4.1 v -0.46391 z m 32,-0.0361 c 0,-0.36547 0.1069,-0.5 0.3972,-0.5 0.6128,0 1.3127,-1.24641 2.834,-5.04676 2.0371,-5.08902 3.9688,-10.26358 3.9688,-10.63122 0,-0.2514 0.2083,-0.32112 0.95,-0.31793 l 0.95,0.004 2.6976,6.91423 c 2.9294,7.50829 3.4694,8.67534 4.1524,8.97502 0.2759,0.12106 0.45,0.3725 0.45,0.65 0,0.45235 0,0.45258 -3.4,0.45258 h -3.4 v -0.475 c 0,-0.36683 0.1354,-0.50209 0.5947,-0.59394 0.8595,-0.1719 0.9114,-0.75366 0.2433,-2.73106 l -0.5744,-1.7 h -2.3632 -2.3633 l -0.4751,1.4 c -0.5985,1.76395 -0.5639,2.97133 0.088,3.06391 0.3257,0.0463 0.45,0.19817 0.45,0.55 v 0.48609 h -2.6 -2.6 v -0.5 z m 9.2,-7.00321 c 0,-0.30429 -1.4692,-4.29679 -1.5811,-4.29679 -0.073,0 -0.2768,0.3825 -0.4531,0.85 -0.1763,0.4675 -0.5517,1.4575 -0.8342,2.2 l -0.5137,1.35 h 1.6911 c 0.9301,0 1.691,-0.0464 1.691,-0.10321 z m 8.6,7.02821 c 0,-0.35752 0.136,-0.50287 0.55,-0.5877 1.082,-0.22171 1.1305,-0.50342 1.2146,-7.04373 0.087,-6.74723 0,-7.31454 -1.1611,-7.75347 -0.3601,-0.13593 -0.6035,-0.37142 -0.6035,-0.58395 0,-0.32045 0.2255,-0.35611 2.25,-0.35572 l 2.25,4e-4 1.3,1.6453 c 0.715,0.90492 2.56,3.13405 4.1,4.95364 1.54,1.81958 3.0064,3.57651 3.2587,3.90427 l 0.4586,0.59594 -0.065,-4.5182 c -0.071,-4.92323 -0.1824,-5.43111 -1.255,-5.70031 -0.3106,-0.078 -0.4975,-0.26694 -0.4975,-0.50317 0,-0.35241 0.1849,-0.37832 2.7,-0.37832 2.5343,0 2.7,0.0237 2.7,0.38609 0,0.24189 -0.1605,0.40996 -0.4299,0.45 -0.2365,0.0351 -0.619,0.31785 -0.85,0.62823 -0.4062,0.54564 -0.4221,0.80879 -0.4814,7.95 l -0.061,7.38568 h -0.872 c -0.7887,0 -0.935,-0.0811 -1.5331,-0.85 -0.5288,-0.67971 -9.0017,-11.17402 -9.3253,-11.55 -0.047,-0.055 -0.047,2.15 0,4.9 0.097,5.57641 0.2192,6.24352 1.1745,6.43458 0.4417,0.0883 0.5771,0.22683 0.5771,0.59042 v 0.475 h -2.7 -2.7 v -0.475 z m 35,-0.025 c 0,-0.29711 0.1145,-0.5 0.2822,-0.5 0.3953,0 1.1366,-0.93848 1.666,-2.10904 0.7361,-1.62788 4.1589,-10.46285 4.7462,-12.25111 l 0.5452,-1.66015 0.8941,0.0602 0.894,0.0602 2.6534,6.8 c 1.4594,3.74 2.8137,7.115 3.0096,7.5 0.4471,0.87884 1.0981,1.6 1.4442,1.6 0.1495,0 0.2651,0.21811 0.2651,0.5 v 0.5 h -3.4 -3.4 v -0.5 c 0,-0.34815 0.1094,-0.5 0.36,-0.5 0.9679,0 1.0576,-0.8452 0.3236,-3.04932 l -0.5164,-1.55068 h -2.3471 -2.3471 l -0.4257,1.35 c -0.8039,2.54991 -0.7658,3.25 0.1772,3.25 0.2672,0 0.3755,0.1442 0.3755,0.5 v 0.5 h -2.6 -2.6 z m 8.486,-8.95 c -0.3781,-1.1275 -0.741,-2.185 -0.8065,-2.35 -0.071,-0.1792 -0.471,0.58587 -0.9931,1.9 -0.4808,1.21 -0.8769,2.2675 -0.8802,2.35 0,0.0825 0.7529,0.15 1.6806,0.15 h 1.6868 z m 9.114,8.95 c 0,-0.39119 0.1021,-0.5 0.469,-0.5 0.258,0 0.6405,-0.18931 0.85,-0.4207 0.3547,-0.3916 0.3851,-0.85149 0.4398,-6.65 0.032,-3.42611 0.01,-6.42931 -0.053,-6.67376 -0.1425,-0.56987 -0.8765,-1.25554 -1.344,-1.25554 -0.2423,0 -0.3623,-0.14897 -0.3623,-0.45 -1e-4,-0.44902 0.01,-0.45 3.3998,-0.45 3.27,0 3.4,0.0153 3.4001,0.40118 10e-5,0.25019 -0.2177,0.4976 -0.5787,0.65738 -0.3183,0.1409 -0.6716,0.50037 -0.7851,0.79882 -0.2915,0.76641 -0.4573,7.0073 -0.2757,10.37885 0.1266,2.35162 0.2167,2.90693 0.5272,3.25 0.2059,0.22757 0.5405,0.41377 0.7434,0.41377 0.2603,0 0.369,0.14734 0.369,0.5 v 0.5 h -3.4 -3.4 z m 22.4,-0.0359 c 0,-0.35796 0.111,-0.46406 0.4855,-0.46406 0.2863,0 0.6556,-0.21624 0.9,-0.52697 0.3994,-0.50774 0.4145,-0.75643 0.4145,-6.81315 0,-4.39553 -0.07,-6.41756 -0.2326,-6.72303 -0.298,-0.55944 -0.7729,-0.92241 -1.2174,-0.93049 -0.2383,-0.004 -0.35,-0.16592 -0.35,-0.50636 v -0.5 h 6 6 v 2.11329 2.11328 l -0.5251,-0.0633 c -0.3955,-0.0477 -0.5806,-0.23143 -0.75,-0.74456 -0.3942,-1.19428 -1.0526,-1.49854 -3.4332,-1.58667 l -2.0917,-0.0774 v 2.82269 2.82268 l 1.25,-0.0113 c 1.7352,-0.0157 2.5814,-0.34107 2.95,-1.13438 0.2197,-0.47284 0.4339,-0.64676 0.8,-0.64972 l 0.5,-0.004 v 2.59974 2.59975 l -0.55,-2e-5 c -0.4436,-2e-5 -0.55,-0.0907 -0.55,-0.46903 0,-0.8931 -0.6669,-1.22414 -2.6207,-1.3009 l -1.7793,-0.0699 v 2.80856 c 0,3.38515 0.031,3.43124 2.3147,3.43124 2.252,0 3.426,-0.57035 4.0138,-1.95 0.297,-0.69728 0.9895,-0.89644 1.201,-0.34541 0.1395,0.36363 -0.4241,2.71157 -0.8475,3.53022 l -0.2996,0.57938 -5.7912,-0.043 -5.7912,-0.043 V 83.2764 Z m -267.9888,-18.24864 -0.4888,-0.37569 1.1888,-1.81672 c 0.6538,-0.9992 1.3164,-1.81814 1.4724,-1.81987 0.6763,-0.007 2.8296,0.45518 2.7757,0.59637 -0.1074,0.28119 -4.0548,3.79816 -4.2593,3.79484 -0.11,-0.002 -0.42,-0.1723 -0.6888,-0.37893 z M 316.9691,51.21222 h 304.6 v 1.8 h -304.6 z m 115.9275,-4.09296 c -1.6,-0.57036 -2.4997,-2.06166 -2.2083,-3.66 0.1964,-1.07712 0.8061,-1.83084 1.8857,-2.33101 l 0.9447,-0.43767 -0.5748,-0.32988 c -0.3267,-0.18748 -0.5748,-0.49982 -0.5748,-0.72359 0,-0.3619 1.4665,-1.82489 1.8293,-1.82489 0.086,0 -0.039,-0.33272 -0.279,-0.73938 -1.0242,-1.7359 -0.2048,-4.24564 1.7074,-5.2297 1.0352,-0.53276 1.3847,-0.5553 5.0095,-0.3231 2.0853,0.13358 2.1629,0.15496 2.0528,0.5655 -0.063,0.23468 -0.1158,0.49418 -0.1173,0.57668 0,0.0825 -0.3542,0.15 -0.7837,0.15 h -0.7811 l 0.1055,1.16275 c 0.23,2.53683 -1.5741,4.27429 -4.4867,4.32085 -1.513,0.0242 -2.2453,0.34506 -1.655,0.72518 0.1641,0.10566 1.1408,0.46477 2.1705,0.79802 3.3112,1.07158 3.9231,1.61083 3.7819,3.3328 -0.1467,1.78846 -1.5853,3.34778 -3.6664,3.97412 -1.1918,0.35868 -3.3446,0.35538 -4.3602,-0.007 z m 4.4531,-1.23481 c 1.6236,-0.8091 2.327,-2.35087 1.4391,-3.15443 -0.5982,-0.54137 -3.1963,-1.37247 -3.8695,-1.23783 -1.3707,0.27413 -2.6511,1.94524 -2.4147,3.15157 0.3247,1.6579 2.7576,2.2809 4.8451,1.24069 z m 0.5354,-9.04936 c 1.219,-0.74336 1.6899,-2.85298 0.8695,-3.8959 -1.1222,-1.42661 -3.258,0.16345 -3.2779,2.44035 -0.01,0.7075 0.096,0.95626 0.5536,1.35 0.6747,0.58037 1.0419,0.60127 1.8548,0.10555 z m 7.584,4.64094 c -0.8786,-0.1795 -1.3493,-0.76597 -1.4492,-1.80561 -0.2558,-2.66196 1.9838,-6.56338 4.4902,-7.82203 1.3028,-0.65424 3.8726,-0.72024 5.5846,-0.14344 0.1536,0.0517 0.04,0.73547 -0.3557,2.14164 -0.7742,2.75027 -1.2174,5.50306 -0.9628,5.97884 0.167,0.31208 0.2855,0.33371 0.8156,0.1489 0.4894,-0.17058 0.6573,-0.15774 0.7955,0.0608 0.2879,0.45508 0.113,0.62818 -1.0298,1.0189 -1.5364,0.52532 -2.2398,0.42292 -2.4707,-0.35971 l -0.1823,-0.61786 -0.8189,0.4577 c -1.3824,0.77262 -3.2721,1.17562 -4.4165,0.94183 z m 3.4574,-1.79815 c 0.5816,-0.27627 1.1881,-0.70182 1.3479,-0.94566 0.2671,-0.40764 1.0818,-3.40788 1.3998,-5.15522 0.1304,-0.71602 0.1144,-0.7406 -0.6127,-0.94136 -1.3433,-0.3709 -2.6943,0.60869 -3.7705,2.73397 -1.1289,2.2295 -1.4136,4.21561 -0.678,4.73083 0.4994,0.34979 0.8053,0.2939 2.3135,-0.42256 z m 94.6939,1.73938 c -0.8975,-0.21306 -1.2142,-0.52454 -1.4595,-1.43567 -0.372,-1.38156 0.4888,-3.99492 1.9527,-5.92819 1.753,-2.31507 3.7014,-3.09645 6.5783,-2.63815 0.7575,0.12066 1.4368,0.28184 1.5095,0.35818 0.073,0.0763 -0.1799,1.35379 -0.5616,2.83879 -0.3817,1.485 -0.7112,3.285 -0.7323,4 l -0.038,1.3 0.85,-0.0379 c 0.7627,-0.034 0.85,0.009 0.85,0.41833 0,0.38185 -0.188,0.51314 -1.1539,0.80559 -1.5895,0.48127 -2.3272,0.37838 -2.4094,-0.33606 -0.035,-0.3025 -0.1,-0.55 -0.1443,-0.55 -0.044,0 -0.5675,0.21519 -1.1622,0.47819 -0.9568,0.42312 -2.9067,0.95733 -3.29,0.90134 -0.077,-0.0113 -0.4321,-0.0898 -0.7889,-0.17449 z m 3.3487,-1.71203 c 0.495,-0.24738 1.046,-0.617 1.2243,-0.82139 0.4426,-0.5071 1.2369,-3.11742 1.6481,-5.41558 0.1096,-0.61267 0.076,-0.65438 -0.6808,-0.85832 -0.6481,-0.1745 -0.9262,-0.15262 -1.4958,0.1177 -1.2697,0.60248 -2.5296,2.64636 -3.1829,5.16343 -0.6258,2.41077 0.1545,2.97989 2.4871,1.81416 z m -216.9007,1.25699 c -0.06,-0.2475 0.2969,-2.10789 0.7923,-4.13421 0.9766,-3.99515 0.9684,-4.31978 -0.102,-4.0128 -0.5294,0.15183 -0.5896,0.1227 -0.5896,-0.28528 0,-0.38089 0.186,-0.50867 1.15,-0.79012 0.6325,-0.18465 1.465,-0.3564 1.85,-0.38166 0.659,-0.0432 0.7038,-0.007 0.7642,0.62493 0.035,0.36897 -0.3096,2.19709 -0.7666,4.06249 -0.4569,1.86539 -0.7773,3.53107 -0.7119,3.7015 0.095,0.24682 0.3048,0.282 1.0324,0.17289 0.8705,-0.13054 0.9105,-0.11539 0.8477,0.32134 -0.052,0.36132 -0.2986,0.53117 -1.1658,0.80241 -0.605,0.18924 -1.5258,0.34957 -2.0462,0.35629 -0.8208,0.0106 -0.9605,-0.0474 -1.0545,-0.43778 z m 7.689,0.0808 -0.456,-0.36925 1.5495,-6.80697 c 0.8521,-3.74383 1.5199,-7.06517 1.4838,-7.38075 -0.067,-0.58839 -0.1397,-0.61872 -0.9156,-0.38335 -0.3837,0.11642 -0.45,0.0623 -0.45,-0.36756 0,-0.58251 0.7024,-0.86392 2.65,-1.06167 1.1158,-0.11329 1.15,-0.10233 1.15,0.3679 0,0.26657 -0.315,1.91208 -0.7,3.65671 -0.385,1.74462 -0.7,3.28896 -0.7,3.43187 0,0.19402 0.2199,0.16256 0.8682,-0.12422 2.2274,-0.98527 4.169,-0.93317 4.866,0.13057 0.6526,0.99599 0.3147,3.57352 -0.7455,5.68641 -0.5516,1.09941 -2.193,2.81045 -3.0844,3.21541 -1.1711,0.53197 -4.861,0.53525 -5.516,0.005 z m 5.0609,-1.26821 c 1.0028,-0.70964 2.1207,-3.10786 2.4359,-5.2259 0.3159,-2.12192 -1.0866,-2.54521 -3.3267,-1.00407 -0.4732,0.32552 -0.8528,0.81018 -1.0488,1.33882 -0.3626,0.97837 -1.1096,4.17126 -1.1096,4.74279 0,0.84157 1.9366,0.93579 3.0492,0.14836 z m 7.6382,1.02414 c -0.5417,-0.56562 -0.5864,-0.72503 -0.5751,-2.05 0.029,-3.37607 1.948,-6.39763 4.5919,-7.22925 1.3191,-0.41491 2.4795,-0.27428 3.2574,0.39478 0.4486,0.38586 0.5384,0.62701 0.5384,1.44507 0,2.05906 -1.8777,3.6209 -4.5801,3.80955 -0.7809,0.0545 -1.486,0.19904 -1.5668,0.32114 -0.2252,0.3402 -0.1804,1.49643 0.077,1.98517 0.499,0.94814 1.215,0.97036 2.9298,0.091 1.0684,-0.5479 1.2882,-0.60108 1.4469,-0.35008 0.3535,0.55899 0.1898,0.73454 -1.3656,1.46443 -1.2952,0.60781 -1.7794,0.73154 -2.8626,0.73154 -1.1938,0 -1.3532,-0.0517 -1.8911,-0.61331 z m 3.5815,-4.80242 c 1.7015,-0.47246 2.8239,-2.29149 1.9519,-3.16343 -0.5498,-0.54984 -1.0582,-0.53179 -1.7647,0.0626 -0.5626,0.47343 -1.4768,1.97356 -1.7469,2.86654 -0.1139,0.37653 -0.061,0.44982 0.3273,0.44889 0.2549,-6e-4 0.8095,-0.0972 1.2324,-0.21462 z m 6.7311,5.34759 c 0,-0.0333 0.3595,-1.58404 0.7988,-3.44617 0.4393,-1.86213 0.7993,-3.77969 0.8,-4.26125 v -0.87556 l -0.8,0.12792 c -0.7092,0.1134 -0.8,0.0825 -0.8,-0.27175 0,-0.43862 0.6466,-0.77452 2.2699,-1.17911 1.1106,-0.2768 1.5301,-0.087 1.5301,0.69252 v 0.46949 l 0.7098,-0.48171 c 1.2486,-0.84729 2.0112,-1.00258 2.9173,-0.594 0.434,0.19571 0.7615,0.45301 0.7278,0.57179 -0.543,1.91417 -0.8519,2.51597 -1.2915,2.51597 -0.3931,0 -0.4634,-0.10249 -0.4634,-0.67551 0,-1.45502 -1.2658,-1.46541 -2.1838,-0.0179 -0.5719,0.90191 -1.1633,2.95296 -1.6328,5.66337 -0.14,0.80847 -0.3511,1.49832 -0.469,1.53301 -0.3519,0.10353 -2.1144,0.29434 -2.1144,0.22892 z m 10.0325,-0.19274 c -0.2208,-0.266 -0.1,-0.98479 1.044,-6.18912 l 0.4724,-2.15 h -0.6744 c -0.371,0 -0.6745,-0.0509 -0.6745,-0.11315 0,-0.31275 0.4478,-0.88685 0.6917,-0.88685 0.4876,0 1.4239,-0.94701 1.8168,-1.83746 0.4391,-0.99543 0.6137,-1.15527 1.2665,-1.15948 0.4297,-0.003 0.4626,0.059 0.3447,0.64694 -0.072,0.3575 -0.1844,0.9875 -0.2506,1.4 l -0.1202,0.75 h 0.9256 c 0.9453,0 1.0845,0.15295 0.8041,0.88364 -0.087,0.22749 -0.3902,0.31636 -1.0783,0.31636 -1.1118,0 -0.9293,-0.39987 -1.8164,3.97984 -0.6517,3.21734 -0.6077,3.51379 0.4752,3.20321 0.9037,-0.25918 0.9765,-0.23771 0.9048,0.26695 -0.049,0.34135 -0.3053,0.53064 -1.0639,0.78397 -1.2245,0.40893 -2.7714,0.46196 -3.0675,0.10515 z m 8.0674,-0.25818 c -1.4637,-1.57936 -0.4045,-6.07087 1.9257,-8.16592 0.9507,-0.85482 2.4353,-1.51502 3.4067,-1.51502 0.6149,0 1.9698,0.63013 2.1735,1.0109 0.3224,0.60233 0.222,2.04111 -0.1895,2.71594 -0.8433,1.38292 -2.661,2.27316 -4.6414,2.27316 h -1.1749 v 1.0555 c 0,2.04893 0.8515,2.4085 3.0898,1.30474 0.7135,-0.35186 1.3367,-0.59936 1.3848,-0.55 0.048,0.0494 0.1184,0.26976 0.1564,0.48976 0.055,0.32104 -0.2226,0.54806 -1.4083,1.15 -1.2839,0.65181 -1.6583,0.75 -2.8596,0.75 -1.231,0 -1.4348,-0.0568 -1.8632,-0.51906 z m 3.5203,-4.91153 c 1.0568,-0.35845 1.7979,-0.96389 2.1182,-1.73037 0.2694,-0.6448 0.2619,-0.74343 -0.093,-1.22027 -0.5497,-0.73913 -1.0894,-0.74376 -1.9178,-0.0165 -0.639,0.56112 -1.7279,2.4423 -1.7279,2.9853 0,0.279 0.7694,0.27035 1.6202,-0.0182 z m 75.1131,5.29726 c -0.2824,-0.28242 -0.099,-1.46256 0.8602,-5.54219 1.3051,-5.54989 2.0065,-8.8174 2.0065,-9.34725 0,-0.37924 -0.082,-0.41626 -0.7,-0.31597 -0.637,0.10337 -0.7,0.0704 -0.7,-0.36612 0,-0.50036 0.499,-0.72185 2.4863,-1.10365 1.0264,-0.19718 1.3137,-0.0671 1.3137,0.59484 0,0.29895 -0.6744,3.46182 -1.4987,7.02861 -0.8242,3.56678 -1.4992,6.7898 -1.5,7.16225 v 0.67718 l 0.9137,-0.12523 c 0.859,-0.11774 0.9098,-0.0988 0.85,0.31653 -0.049,0.34155 -0.3132,0.5198 -1.1637,0.78582 -1.1235,0.35143 -2.627,0.47478 -2.8666,0.23518 z m 7.5393,-0.11094 c -0.2453,-0.39706 -0.105,-1.26317 0.7467,-4.60749 0.4436,-1.74169 0.7728,-3.32005 0.7317,-3.50747 -0.079,-0.35975 -0.1289,-0.36787 -1.001,-0.1626 -0.4646,0.10934 -0.55,0.0651 -0.55,-0.28456 0,-0.47678 0.8537,-0.90035 2.409,-1.19532 1.1111,-0.21071 1.591,-0.10283 1.591,0.35764 0,0.17222 -0.4075,2.01215 -0.9055,4.08873 -0.4981,2.07658 -0.8462,3.87165 -0.7737,3.98904 0.081,0.13067 0.476,0.16628 1.0192,0.0918 0.8309,-0.11389 0.8833,-0.0935 0.8237,0.32014 -0.049,0.34155 -0.3132,0.5198 -1.1637,0.78582 -1.3015,0.40712 -2.7154,0.46712 -2.9274,0.12424 z m 7.3869,-0.0892 c -0.07,-0.18343 -0.017,-0.83593 0.1191,-1.45 0.4462,-2.01586 1.4214,-6.62922 1.4214,-6.72385 0,-0.051 -0.2766,-0.0926 -0.6147,-0.0926 -0.8682,0 -0.7062,-0.55901 0.3149,-1.08667 0.6079,-0.31413 0.9585,-0.71332 1.4608,-1.66333 0.5721,-1.08169 0.737,-1.25 1.2253,-1.25 h 0.5641 l -0.2682,1.25 c -0.1475,0.6875 -0.2713,1.3175 -0.2752,1.4 0,0.0825 0.443,0.15 0.993,0.15 1.0448,0 1.0693,0.021 0.874,0.75 -0.1054,0.39316 -0.2514,0.45 -1.1556,0.45 h -1.0349 l -0.6727,3.37518 c -0.3699,1.85635 -0.6184,3.51642 -0.5522,3.68904 0.097,0.25369 0.2468,0.27762 0.7796,0.12483 0.9166,-0.26288 0.9618,-0.2495 0.9618,0.2846 0,0.40648 -0.1649,0.51992 -1.1631,0.8 -1.5496,0.4348 -2.809,0.43177 -2.9774,-0.007 z m 8.2362,-0.11943 c -0.4978,-0.4282 -0.5841,-0.66313 -0.6555,-1.78342 -0.1602,-2.51725 0.9921,-5.35913 2.7028,-6.66531 1.889,-1.44239 3.9522,-1.63389 5.1117,-0.47444 0.5378,0.53785 0.5853,0.68959 0.4985,1.59317 -0.1904,1.98101 -2.0889,3.41992 -4.6868,3.55208 -1.6247,0.0827 -1.7956,0.27783 -1.4769,1.68653 0.3469,1.53351 0.9773,1.6909 2.9791,0.74387 1.326,-0.62731 1.6314,-0.62693 1.6314,0.002 0,0.63919 -2.4003,1.66608 -4.1154,1.76062 -1.2765,0.0704 -1.4718,0.0296 -1.9889,-0.41515 z m 4.3008,-5.34528 c 1.2472,-0.63626 1.7824,-2.05158 1.0725,-2.83603 -0.8934,-0.98726 -2.5474,0.30575 -3.3687,2.63349 l -0.3018,0.85534 0.9014,-0.12355 c 0.4958,-0.0679 1.2593,-0.30612 1.6966,-0.52925 z m 47.8035,5.72449 c 0,-0.0302 0.3595,-1.57845 0.7988,-3.44058 0.4393,-1.86213 0.7993,-3.77969 0.8,-4.26125 v -0.87556 l -0.8,0.12792 c -0.7067,0.113 -0.8,0.0818 -0.8,-0.2674 0,-0.48564 0.352,-0.68235 1.9721,-1.10218 1.4078,-0.36479 1.8279,-0.22431 1.8279,0.61124 v 0.46949 l 0.7098,-0.48171 c 1.2449,-0.84479 2.0118,-1.00234 2.9092,-0.59766 0.4296,0.1937 0.781,0.406 0.781,0.4718 10e-5,0.0658 -0.2016,0.68212 -0.4482,1.36962 -0.3701,1.03214 -0.527,1.25 -0.9,1.25 -0.3799,0 -0.4518,-0.10752 -0.4518,-0.67551 0,-1.36706 -1.1753,-1.46905 -2.0529,-0.17814 -0.6673,0.98161 -1.0087,2.04695 -1.5557,4.85365 -0.2465,1.265 -0.503,2.3559 -0.5698,2.42422 -0.12,0.12264 -2.2216,0.40836 -2.2216,0.30205 z m 23.0674,-0.23913 c -0.1641,-0.42763 0.025,-1.65948 0.7978,-5.18714 l 0.6569,-3 -0.5611,-0.0627 c -0.6711,-0.075 -0.7844,-0.73946 -0.1599,-0.93767 0.7031,-0.22314 1.515,-1.04779 1.9074,-1.93712 0.4391,-0.99543 0.6137,-1.15527 1.2665,-1.15948 0.4297,-0.003 0.4626,0.059 0.3447,0.64694 -0.072,0.3575 -0.1844,0.9875 -0.2506,1.4 l -0.1202,0.75 h 0.9256 c 0.9453,0 1.0845,0.15295 0.8041,0.88364 -0.087,0.22749 -0.3902,0.31636 -1.0783,0.31636 -1.1118,0 -0.9293,-0.39987 -1.8164,3.97984 -0.6517,3.21734 -0.6077,3.51379 0.4752,3.20321 0.9037,-0.25918 0.9765,-0.23771 0.9048,0.26695 -0.048,0.34135 -0.3053,0.53064 -1.0639,0.78397 -1.3314,0.44465 -2.872,0.47166 -3.0326,0.0532 z m 8.0695,-0.20481 c -1.5161,-1.51611 -0.468,-6.04845 1.8887,-8.16731 0.9507,-0.85482 2.4353,-1.51502 3.4067,-1.51502 0.6149,0 1.9698,0.63013 2.1736,1.0109 0.3223,0.60233 0.2219,2.04111 -0.1896,2.71594 -0.8472,1.38938 -2.6611,2.27316 -4.6655,2.27316 h -1.1989 l 0.089,1.22688 c 0.1409,1.94836 0.8568,2.21445 3.0491,1.13336 0.7136,-0.35186 1.3367,-0.59936 1.3848,-0.55 0.048,0.0494 0.1184,0.26976 0.1564,0.48976 0.055,0.32104 -0.2226,0.54806 -1.4083,1.15 -1.2723,0.64593 -1.664,0.75 -2.8227,0.75 -1.1807,0 -1.4088,-0.0634 -1.8631,-0.51767 z m 4.1928,-5.2123 c 1.3989,-0.69526 2.0257,-2.30738 1.1537,-2.96724 -0.5792,-0.43827 -0.9993,-0.36443 -1.7683,0.31084 -0.6435,0.56499 -1.7151,2.43958 -1.7151,3.00032 0,0.33102 1.3822,0.12698 2.3297,-0.34392 z m 6.0703,5.558 c 0,-0.0842 0.3653,-1.70615 0.8117,-3.60428 0.4464,-1.89813 0.7839,-3.73749 0.75,-4.08745 -0.058,-0.59639 -0.1074,-0.63369 -0.7906,-0.59473 -0.5715,0.0326 -0.7506,-0.0415 -0.8295,-0.34329 -0.082,-0.31311 0.091,-0.45569 0.9289,-0.76475 0.5662,-0.20894 1.3671,-0.44105 1.7797,-0.5158 0.7755,-0.1405 0.7623,-0.15127 1.2476,1.02289 0.01,0.0223 0.5437,-0.22516 1.1877,-0.55 1.3781,-0.69514 1.6092,-0.71435 2.4471,-0.20343 l 0.6325,0.38569 -0.4325,1.30874 c -0.3609,1.09196 -0.5071,1.30953 -0.8826,1.31356 -0.3767,0.004 -0.45,-0.10264 -0.45,-0.65518 0,-1.74272 -1.6586,-1.39803 -2.5665,0.53336 -0.2281,0.48525 -0.6799,2.15823 -1.004,3.71774 -0.3242,1.5595 -0.6209,2.86187 -0.6594,2.89416 -0.176,0.14748 -2.1701,0.27867 -2.1701,0.14277 z m 10,8e-4 c 0,-0.09 0.3211,-1.41576 0.7136,-2.94617 0.4286,-1.67132 0.7281,-3.34167 0.75,-4.18257 l 0.036,-1.4 -0.7252,0.0556 c -0.57,0.0437 -0.7463,-0.0252 -0.8239,-0.32171 -0.081,-0.30832 0.089,-0.43427 0.9252,-0.6891 1.8183,-0.55377 2.2466,-0.59347 2.5992,-0.24093 0.1786,0.17861 0.3247,0.54332 0.3247,0.81046 0,0.26714 0.037,0.48571 0.082,0.48571 0.045,0 0.639,-0.26342 1.3198,-0.58538 1.612,-0.76235 3.7486,-1.16224 4.3863,-0.82094 0.4162,0.22272 0.4459,0.33777 0.3243,1.25436 -0.074,0.55502 -0.3972,2.09877 -0.7191,3.43055 -0.322,1.33178 -0.6097,2.73641 -0.6394,3.12141 -0.054,0.69992 -0.054,0.7 0.7874,0.68338 0.5751,-0.0114 0.8779,0.0784 0.9566,0.28344 0.1585,0.41317 -0.03,0.54779 -1.2843,0.91503 -1.4224,0.41659 -2.7319,0.41987 -2.8902,0.007 -0.066,-0.17101 0.2398,-1.91436 0.6786,-3.87413 0.8799,-3.92938 0.9304,-4.37666 0.5125,-4.53704 -0.4314,-0.16555 -1.9616,0.58493 -2.8747,1.40986 -0.7516,0.67902 -0.8478,0.89006 -1.3093,2.87254 -0.274,1.17682 -0.5617,2.57434 -0.6394,3.10558 -0.078,0.53125 -0.2426,0.99611 -0.3663,1.03302 -0.6066,0.18098 -2.1249,0.27374 -2.1249,0.12981 z m 13.7173,-0.15574 c -0.069,-0.17985 0.288,-2.03258 0.7934,-4.11719 0.5054,-2.08461 0.872,-3.91253 0.8146,-4.06205 -0.08,-0.20825 -0.2585,-0.22762 -0.7635,-0.0828 -0.3625,0.10397 -0.6822,0.18904 -0.7105,0.18904 -0.028,0 -0.051,-0.20856 -0.051,-0.46347 0,-0.38546 0.1768,-0.51693 1.05,-0.78102 2.3697,-0.71663 3.1017,-0.59506 2.8623,0.47536 -0.058,0.25803 -0.4698,1.99311 -0.9159,3.85575 -0.4461,1.86264 -0.761,3.51713 -0.6998,3.67665 0.085,0.22151 0.3262,0.26057 1.021,0.16533 0.8548,-0.11716 0.9059,-0.098 0.8461,0.31707 -0.1232,0.85497 -3.9497,1.60049 -4.2464,0.82733 z m 7.5457,0.003 c -0.1334,-0.34764 0.029,-1.30253 0.8103,-4.77559 0.8642,-3.83991 0.8518,-3.5 0.1279,-3.5 -0.8794,0 -0.733,-0.55176 0.2884,-1.08668 0.5876,-0.30775 0.95,-0.71982 1.419,-1.61332 0.5121,-0.97575 0.7342,-1.21234 1.1887,-1.266 0.6071,-0.0717 0.6115,-0.0209 0.183,2.116 l -0.1303,0.65 h 1.0464 c 0.872,0 1.0262,0.0527 0.925,0.31636 -0.067,0.17399 -0.1214,0.44399 -0.1214,0.6 0,0.20967 -0.2803,0.28364 -1.075,0.28364 h -1.0749 l -0.6604,3.36356 c -0.3633,1.84996 -0.6042,3.51003 -0.5355,3.68905 0.1021,0.26624 0.2448,0.29107 0.784,0.13643 0.9166,-0.26287 0.9618,-0.24949 0.9618,0.2846 0,0.40649 -0.1649,0.51992 -1.1631,0.8 -1.534,0.43041 -2.8092,0.43125 -2.9739,0.002 z m 8.2216,-0.13856 c -0.5728,-0.49303 -0.5846,-0.5432 -0.5846,-2.48098 0,-1.885 0.035,-2.04947 0.7556,-3.50611 0.8835,-1.78705 1.8974,-2.75394 3.5272,-3.36375 2.839,-1.06219 4.8781,0.74226 3.6217,3.20493 -0.7103,1.39247 -2.6052,2.39759 -4.5328,2.40449 -1.1579,0.004 -1.2359,0.0345 -1.3603,0.53006 -0.1672,0.6662 0.042,1.67075 0.4419,2.12433 0.4547,0.51554 1.2368,0.4293 2.6319,-0.29025 1.0405,-0.53658 1.2712,-0.59325 1.4251,-0.35 0.3542,0.55991 0.1785,0.77523 -1.1603,1.42213 -1.0307,0.49804 -1.6847,0.67076 -2.7654,0.73033 -1.2834,0.0707 -1.4701,0.031 -2,-0.42518 z m 4.3561,-5.38395 c 1.3515,-0.75956 1.8025,-2.25345 0.8657,-2.86727 -0.3694,-0.24206 -0.6335,-0.277 -1.05,-0.13891 -0.7053,0.23388 -1.7125,1.5413 -2.129,2.76342 l -0.3213,0.94322 0.918,-0.12584 c 0.505,-0.0692 1.2775,-0.32779 1.7166,-0.57462 z m -302.4037,5.30241 c 0.037,-0.19305 0.2466,-0.38382 0.4653,-0.42394 0.5939,-0.10892 1.1128,-0.63562 1.518,-1.5408 0.5376,-1.20066 2.1962,-9.55058 2.2411,-11.28165 0.038,-1.47644 0.032,-1.49475 -0.6037,-1.9 -1.241,-0.7906 -0.9093,-0.9092 2.5423,-0.9092 2.7344,0 3.2,0.0444 3.2,0.305 0,0.17957 -0.2492,0.35485 -0.6061,0.42622 -1.2755,0.2551 -1.7596,1.51417 -2.9637,7.70819 -1.1253,5.7883 -1.1143,5.67645 -0.6089,6.1819 0.3841,0.38407 0.5931,0.41695 2.1521,0.33851 2.0969,-0.10552 2.8544,-0.45843 3.5868,-1.67099 0.577,-0.95522 0.6,-0.97129 1.0137,-0.70921 0.2296,0.14545 0.221,0.33076 -0.053,1.14693 -0.1799,0.5354 -0.531,1.33345 -0.7801,1.77345 l -0.4531,0.8 -5.359,0.0533 c -5.0182,0.0499 -5.3548,0.031 -5.2915,-0.29771 z m 101.163,0.0609 c 0,-0.15594 0.3375,-0.44844 0.75,-0.65 0.5226,-0.25537 0.883,-0.63931 1.1886,-1.26647 0.573,-1.17587 2.3051,-9.69334 2.3368,-11.4912 0.024,-1.35862 0.01,-1.40078 -0.6177,-1.8 -1.3422,-0.85426 -1.0388,-0.9088 5.0558,-0.9088 5.591,0 5.7108,0.008 5.5886,0.3935 -0.069,0.21643 -0.2372,1.00393 -0.3744,1.75 -0.2117,1.15062 -0.3162,1.3662 -0.6886,1.42041 -0.3572,0.052 -0.4391,-0.0344 -0.4391,-0.46315 0,-1.32769 -0.7878,-1.70076 -3.5915,-1.70076 h -1.9319 l -0.5547,2.55 c -0.305,1.4025 -0.5983,2.7075 -0.6517,2.9 -0.087,0.31437 0.082,0.3497 1.6663,0.34705 1.9916,-0.003 2.5787,-0.21584 3.1631,-1.14506 0.5201,-0.82685 1.1985,-0.89333 1.0408,-0.10199 -0.06,0.3025 -0.2689,1.3825 -0.4637,2.4 -0.2794,1.45923 -0.4253,1.85 -0.6905,1.85 -0.2122,0 -0.3797,-0.21731 -0.454,-0.58912 -0.065,-0.32468 -0.323,-0.69952 -0.575,-0.83506 -0.48,-0.25818 -3.6251,-0.37323 -3.8581,-0.14113 -0.1345,0.13409 -0.7251,3.01652 -0.9841,4.8038 -0.1245,0.85915 -0.093,0.96689 0.3766,1.27437 0.4122,0.27012 0.8548,0.31866 2.2605,0.24797 2.087,-0.10495 2.8286,-0.43796 3.6869,-1.65569 0.3714,-0.52687 0.7228,-0.83051 0.8878,-0.76717 0.3891,0.1493 0.3431,0.50688 -0.2467,1.91806 -0.8747,2.09275 -0.3763,1.94397 -6.5111,1.94397 -4.5005,0 -5.369,-0.0459 -5.369,-0.28353 z m 101.6,0.004 c 0,-0.15926 0.2925,-0.38927 0.65,-0.51114 1.2626,-0.43041 1.6799,-1.57106 2.9431,-8.04481 1.0878,-5.5749 1.0612,-6.46656 -0.2053,-6.86851 -0.2254,-0.0715 -0.3749,-0.23493 -0.3322,-0.3631 0.056,-0.16817 1.6217,-0.24783 5.6255,-0.28622 5.4534,-0.0523 5.5458,-0.0464 5.422,0.34351 -0.069,0.21818 -0.2382,1.00711 -0.3754,1.75319 -0.2117,1.15061 -0.3162,1.36619 -0.6886,1.4204 -0.3706,0.054 -0.4391,-0.0318 -0.4391,-0.55 0,-1.26267 -0.9754,-1.6793 -3.6872,-1.57497 l -1.5872,0.0611 -0.556,2.6 c -0.3058,1.43 -0.559,2.7125 -0.5628,2.85 -0.01,0.36918 3.0461,0.33634 3.775,-0.0406 0.309,-0.15982 0.6755,-0.56482 0.8143,-0.9 0.1547,-0.37341 0.398,-0.60944 0.6282,-0.60944 0.4655,0 0.4686,-0.1451 -0.055,2.55 -0.3667,1.88929 -0.4955,2.25 -0.8033,2.25 -0.2215,0 -0.3665,-0.14445 -0.3665,-0.36513 0,-0.93326 -1.8697,-1.62719 -3.5977,-1.33525 l -0.7644,0.12914 -0.4056,2.23562 c -0.7155,3.94233 -0.6853,4.29945 0.4012,4.74949 1.1959,0.49535 0.5055,0.68487 -2.6999,0.74121 -2.6273,0.0462 -3.1336,0.008 -3.1336,-0.23449 z m -117.3212,-4.3023 c -0.8945,-0.40626 -1.6788,-1.66186 -1.6788,-2.68785 0,-1.5888 1.4044,-3.0096 2.9693,-3.00406 1.8716,0.007 3.0286,1.14989 3.03,2.99405 0,2.34336 -2.1468,3.68498 -4.3205,2.69786 z m 101.797,0.0944 c -0.3433,-0.14941 -0.8802,-0.60737 -1.1932,-1.01768 -0.464,-0.60838 -0.5662,-0.93763 -0.554,-1.78454 0.027,-1.83747 1.1692,-2.96761 3.0003,-2.96761 0.9074,0 1.2095,0.0986 1.829,0.5969 1.3806,1.11047 1.5952,2.97227 0.4935,4.28155 -0.926,1.10045 -2.3052,1.44428 -3.5756,0.89138 z M 383.2727,29.61661 c -0.3934,-0.4347 -0.4217,-0.38915 1.8512,-2.97712 l 0.7668,-0.87312 1.1392,0.25494 c 0.6266,0.14022 1.1392,0.31537 1.1392,0.38921 0,0.13493 -4.2823,3.60208 -4.4489,3.60208 -0.049,0 -0.2504,-0.17819 -0.4475,-0.39599 z m 101.7507,-2e-4 -0.4437,-0.3593 1.5097,-1.72222 c 0.8304,-0.94723 1.5862,-1.72223 1.6795,-1.72223 0.4878,0 2.2022,0.49158 2.1551,0.61793 -0.05,0.13302 -3.7758,3.12946 -4.2559,3.42245 -0.1105,0.0675 -0.4007,-0.039 -0.6447,-0.23663 z m 132.953,0.002 -0.4826,-0.36403 1.5623,-1.72075 c 0.8592,-0.94641 1.6343,-1.72075 1.7223,-1.72075 0.3958,0 2.1897,0.48062 2.1812,0.58435 -0.01,0.10816 -3.7856,3.15542 -4.2764,3.45043 -0.1233,0.0741 -0.4413,-0.029 -0.7068,-0.22925 z M 332.5483,28.59197 c -0.8128,-0.81277 -0.02,-2.37917 1.2047,-2.37917 0.8515,0 1.2961,0.44675 1.2961,1.30234 0,1.33471 -1.5678,2.00981 -2.5008,1.07683 z m 134.9708,0.14242 c -0.4915,-0.37313 -0.4624,-1.60917 0.05,-2.12159 0.8249,-0.82492 2.4,-0.28649 2.4,0.82043 0,1.19881 -1.5208,2.0065 -2.45,1.30116 z m 132.8292,-0.14242 c -0.827,-0.82697 -0.016,-2.37917 1.243,-2.37917 1.2564,0 1.7946,1.40137 0.8869,2.30909 -0.6161,0.61614 -1.553,0.64696 -2.1299,0.0701 z m -175.22,-5.71686 c -0.3055,-0.34056 -0.2326,-0.4628 1.2142,-2.03644 l 1.5392,-1.67412 1.1437,0.25595 c 0.629,0.14077 1.1392,0.30913 1.1336,0.37413 -0.016,0.19018 -4.0325,3.26676 -4.3848,3.3589 -0.1765,0.0461 -0.4671,-0.0792 -0.6459,-0.27842 z"
     id="path8"
     style="fill:#000000;stroke:none;stroke-width:0.2"
     inkscape:connector-curvature="0" />
  <path
     d="m 176.0199,104 0.4666,-1.20665 c 0.7907,-2.1798 1.6108,-3.84343 2.7943,-5.66855 1.2537,-1.93343 4.0133,-4.78137 5.1613,-5.32648 1.4109,-0.66994 3.1648,-0.90582 5.3338,-0.7173 1.8625,0.16189 7.5851,1.09764 9.8943,1.61791 1.7575,0.39596 4.3309,0.43385 5.5418,0.0816 2.3332,-0.67873 3.7155,-1.99074 4.3715,-4.14931 0.5032,-1.65591 0.4984,-3.16086 -0.013,-4.16451 -0.6873,-1.3481 -0.5703,-1.69872 1.1,-3.29588 0.825,-0.78889 1.5011,-1.51831 1.5024,-1.62093 0.01,-0.53397 -1.136,-2.67803 -1.4303,-2.68286 -0.1803,-0.003 -0.5365,-0.17449 -0.7916,-0.38117 l -0.4638,-0.37579 0.9916,-0.50694 c 1.354,-0.69219 2.3583,-1.7686 2.3583,-2.52765 0,-0.32792 -0.2853,-1.13181 -0.6339,-1.78643 -0.6691,-1.25622 -0.8481,-2.45653 -0.4714,-3.16093 0.2489,-0.46539 0.6781,-0.66111 2.7866,-1.27058 1.7718,-0.51215 2.4124,-1.0313 2.665,-2.15985 0.2161,-0.96545 0.1099,-1.58597 -0.4698,-2.74593 -0.4721,-0.94443 -3.5461,-5.65396 -4.4416,-6.80452 -1.2033,-1.54611 -2.6691,-4.21727 -3.1027,-5.65393 -0.4273,-1.41614 -0.4302,-1.4964 -0.1184,-3.32698 0.6592,-3.86975 0.2738,-7.07812 -1.6019,-13.33389 -1.394,-4.64927 -1.7683,-5.77793 -2.2048,-6.64777 -0.7892,-1.57258 -0.6837,-1.94072 0.9354,-3.26624 0.7749,-0.63447 1.4949,-1.31422 1.5999,-1.51055 0.489,-0.91414 -0.058,-2.67553 -0.9838,-3.17164 -0.588,-0.31489 -0.9153,-0.0987 -1.5122,0.9988 -0.4523,0.83156 -0.6296,0.98903 -1.1137,0.98903 -0.7879,0 -0.9261,-0.33051 -0.4229,-1.01158 0.5867,-0.79406 0.5402,-0.92139 -0.3814,-1.04508 -0.6898,-0.0926 -1.0544,-0.36216 -2.55,-1.88516 -2.005,-2.04189 -3.3519,-2.98285 -6.037,-4.21741 -1.2309,-0.56596 -1.6596,-0.83383 -1.208,-0.75482 0.385,0.0674 1.7462,0.17499 3.025,0.23918 3.7106,0.18627 4.6125,-0.30396 5.4772,-2.97702 0.5872,-1.81489 0.8688,-2.65424 -0.4785,-3.92137 L 196.6491,0 H 307.6 v 104 z"
     id="path10"
     style="fill:#e2011c;fill-opacity:1;stroke:none;stroke-width:0.2"
     inkscape:connector-curvature="0" />
  <path
     d="m 81.4065,104 c -0.8052,-0.0845 -1.5034,-0.12124 -1.5516,-0.1694 -0.085,-0.0847 0.8248,-0.66937 4.9899,-3.20774 1.3359,-0.81419 1.8856,-1.25061 1.7,-1.34985 -0.1509,-0.0806 -1.317,-0.20851 -2.5914,-0.28413 -1.8934,-0.11235 -2.4421,-0.0801 -3,0.17626 -0.3756,0.17257 -1.8744,0.62645 -3.3307,1.00862 -3.6119,0.94788 -4.8273,1.59863 -5.9871,3.20548 L 71.2023,104 H 0 V 0 h 141.2677 l -2.7371,1.78674 c -1.5069,0.74814 -3.2581,1.78721 -3.8916,2.30904 -2.1487,1.77016 -5.0422,5.79707 -5.7647,8.02291 -0.2656,0.81811 -0.5067,1.12476 -1.3215,1.68087 -1.2434,0.84859 -2.7327,2.46687 -3.966,4.30922 -1.6746,2.50165 -4.8664,8.13952 -5.4936,9.70351 -0.9729,2.42624 -0.8845,4.27375 0.5514,11.52446 0.6321,3.19212 1.3161,6.43427 1.5199,7.20478 0.2039,0.77051 0.427,2.07638 0.4959,2.90193 0.1229,1.47399 0.2187,1.7931 1.0816,3.60239 0.2363,0.49533 0.4293,1.05744 0.429,1.24913 -4e-4,0.1917 0.1794,0.46102 0.3994,0.59851 0.2282,0.14259 0.4,0.46671 0.4,0.75452 0,0.3467 0.4555,1.0047 1.456,2.10328 2.289,2.5133 3.944,4.86935 3.944,5.6145 0,0.61198 -0.8977,0.77014 -2.3441,0.41297 -1.6904,-0.41744 -3.0733,-1.31909 -5.2059,-3.39439 -0.9075,-0.88312 -1.65,-1.47686 -1.65,-1.31941 0,0.15744 0.6222,0.97851 1.3827,1.82461 1.5125,1.68274 1.7497,2.14187 1.4226,2.75339 -0.2861,0.53498 -0.9822,0.69076 -1.924,0.43056 -1.0867,-0.30027 -1.7235,0.11829 -1.5443,1.01507 0.1099,0.55016 0.08,0.61488 -0.231,0.49554 -0.6144,-0.23591 -1.9588,-0.50614 -3.1677,-0.63671 -1.1105,-0.11994 -1.1927,-0.16864 -1.8649,-1.105 -0.5095,-0.70958 -0.9059,-1.03641 -1.4383,-1.18593 -1.9846,-0.5573 -6.9207,-1.41632 -10.235,-1.78117 -5.8257,-0.6413 -7.2289,-0.69165 -10.0199,-0.35953 -2.1433,0.25505 -2.7261,0.40472 -3.9,1.00158 -2.078,1.0566 -5.6801,4.36737 -5.6801,5.22076 0,0.40036 0.7934,0.25911 1.7,-0.30265 2.7514,-1.70479 12.1759,-4.11083 16.8,-4.28899 2.2914,-0.0883 2.1672,0.0215 -0.5821,0.51432 -0.7602,0.13627 -2.5602,0.59743 -4,1.02479 -1.4398,0.42736 -3.9229,1.0859 -5.5179,1.4634 -1.595,0.37751 -3.395,0.86419 -4,1.08151 l -1.1,0.39512 1.7,0.0186 c 8.6621,0.0947 18.5363,2.84462 22.5547,6.28151 1.729,1.4788 2.3622,1.65827 4.9056,1.39043 3.4855,-0.36706 7.997,-2.03111 9.9755,-3.67944 0.8586,-0.7153 1.5649,-0.99969 1.5636,-0.6296 0,0.6537 -1.1395,4.1679 -1.6311,5.03975 -0.548,0.97196 -0.5791,1.11187 -0.2937,1.32065 0.1755,0.12844 0.2687,0.28394 0.2071,0.34556 -0.062,0.0616 0.075,0.17136 0.3032,0.24386 0.6563,0.20847 0.4912,0.40993 -0.5564,0.67859 -1.0213,0.26191 -1.8286,0.72049 -1.8286,1.03868 0,0.10383 0.1403,0.18878 0.3118,0.18878 0.5137,0 0.1304,0.3592 -0.5407,0.50669 -0.4595,0.10099 -0.5513,0.18351 -0.3477,0.31253 0.1996,0.12648 0.207,0.17617 0.027,0.17838 -0.1375,0.002 -0.25,0.20623 -0.25,0.45454 0,0.30917 -0.1891,0.53526 -0.6,0.71724 -1.0013,0.44355 -0.7206,0.68309 0.65,0.55466 0.6875,-0.0644 1.115,-0.0638 0.95,0.001 -0.165,0.0652 -1.29,0.57446 -2.5,1.13168 -1.21,0.55722 -2.785,1.21869 -3.5,1.46993 -0.8093,0.2844 -1.3263,0.58393 -1.3697,0.79366 -0.07,0.33691 0.3059,0.32573 1.2512,-0.0372 0.1752,-0.0673 0.3164,-0.0452 0.3137,0.0492 0,0.0943 -2.0857,1.29726 -4.629,2.67317 -2.5433,1.37592 -4.9231,2.79436 -5.2885,3.1521 -0.3653,0.35773 -0.8328,0.65043 -1.0389,0.65043 -0.2072,0 -0.4782,0.22763 -0.6066,0.50975 -0.3885,0.85316 -0.3081,0.95694 0.6179,0.79786 1.3757,-0.23635 2.0063,-0.22333 2.0976,0.0433 0.049,0.14424 -0.08,0.25017 -0.3065,0.25017 -0.2157,0 -0.4998,0.12974 -0.6313,0.28832 -0.1315,0.15857 -0.4788,0.31618 -0.7718,0.35023 -0.3408,0.0396 -0.6776,0.29128 -0.9353,0.6989 -0.2215,0.35034 -0.5827,0.68325 -0.8027,0.7398 -0.22,0.0566 0.095,0.066 0.7,0.021 8.9959,-0.66947 10.6719,-1.0026 14.2999,-2.84228 3.0951,-1.56947 6.3081,-3.90259 8.5938,-6.24039 0.6565,-0.67153 1.264,-1.22097 1.3499,-1.22097 0.3108,0 0.1422,1.12258 -0.3167,2.10868 -0.7941,1.70663 -2.4605,3.27871 -5.8856,5.55272 -1.7277,1.14709 -3.5914,2.22742 -4.1414,2.40073 -1.7184,0.54149 -4.4925,1.1183 -7.4008,1.53881 -9.4746,1.36994 -13.1004,2.40904 -16.692,4.78366 -0.6011,0.39743 -1.2321,0.699 -1.4022,0.67016 -0.1701,-0.0288 -0.6233,0.2161 -1.0071,0.54431 -1.0794,0.92311 -0.2974,0.76695 1.9414,-0.38765 2.2942,-1.18319 3.3698,-1.36965 1.5608,-0.27057 -2.2182,1.34767 -3.909,2.1922 -5.5645,2.1922 z M 69.6372,92.39878 c 0.3596,-0.15035 1.5492,-0.81682 2.6436,-1.48105 1.0944,-0.66424 2.3948,-1.39145 2.8898,-1.61603 0.495,-0.22459 1.89,-0.85514 3.1,-1.40122 2.5361,-1.14459 6.2579,-2.22457 6.472,-1.87802 0.075,0.12174 0.6297,0.25581 1.2323,0.29794 0.8434,0.059 0.992,0.11318 0.6456,0.23552 -0.2475,0.0874 -0.45,0.23848 -0.45,0.33571 0,0.36206 1.8718,0.25345 2.6598,-0.15434 0.309,-0.15987 1.0069,-0.34343 1.551,-0.40791 0.6765,-0.0802 0.9892,-0.2089 0.9892,-0.40716 0,-0.22628 0.1718,-0.26087 0.7827,-0.15759 0.8406,0.14211 2.6485,-0.19989 7.5173,-1.42201 3.2973,-0.82766 5.7946,-1.66061 7.988,-2.66432 l 1.588,-0.72668 -1.588,-1.01766 c -3.8705,-2.48039 -7.757,-4.00353 -16.288,-6.38328 -1.485,-0.41424 -2.79,-0.84265 -2.9,-0.95202 -0.1326,-0.13189 -0.065,-0.15051 0.2,-0.0553 0.8518,0.30565 1.5,0.36424 1.5,0.13557 0,-0.29661 -0.6441,-0.53571 -1.9095,-0.70888 -1.1574,-0.15838 -1.9045,-0.50389 -1.1005,-0.50892 1.2445,-0.008 -0.8949,-0.79689 -3.29,-1.21353 -1.7731,-0.30845 -1.8753,-0.37447 -1.1346,-0.7334 0.6454,-0.31279 1.3396,-1.49645 1.1569,-1.97273 -0.155,-0.4043 -0.3484,-0.3626 -1.3074,0.28194 -1.8491,1.24267 -3.5451,3.27762 -4.4982,5.39714 -0.5437,1.20906 -0.3555,1.31999 2.443,1.43964 2.2915,0.098 2.3278,0.1068 1.7403,0.42246 -0.33,0.17732 -0.9919,0.38253 -1.4709,0.45603 -1.6271,0.24961 -2.5308,1.0221 -1.7242,1.47379 0.2395,0.13413 0.1445,0.24722 -0.4437,0.52788 -0.6593,0.3146 -0.7056,0.3812 -0.3889,0.55859 0.1978,0.11077 0.773,0.16851 1.2782,0.1283 0.702,-0.0559 1.0226,0.0198 1.3606,0.32101 l 0.4422,0.39411 -0.8873,0.56306 c -0.488,0.30968 -1.04,0.8518 -1.2266,1.20472 -0.1866,0.35291 -0.8568,1.19255 -1.4893,1.86587 -0.6325,0.67332 -1.15,1.36975 -1.15,1.54762 0,0.17787 -0.9225,1.06182 -2.05,1.96433 -3.0322,2.42711 -4.35,3.76114 -4.35,4.40347 0,0.33988 -0.1714,0.64595 -0.472,0.84304 -0.9466,0.62065 -1.4406,1.33767 -0.9216,1.33767 0.1135,0 0.5006,-0.12301 0.8602,-0.27336 z M 93.033,90.06029 c 0.7494,-0.1002 1.6172,-0.3327 1.9284,-0.51666 l 0.5659,-0.33448 -0.9651,-0.48124 -0.9651,-0.48125 -0.9633,0.39047 c -0.5298,0.21475 -1.2634,0.50411 -1.6303,0.64301 -1.4756,0.55868 -1.6681,1.30967 -0.283,1.10363 0.5225,-0.0777 1.5631,-0.22329 2.3125,-0.32348 z M 59.1706,80.95954 c 4.457,-4.66318 7.6021,-7.42957 11.5943,-10.19802 1.3567,-0.9408 2.3124,-1.48473 2.3596,-1.34295 0.1296,0.38904 0.7108,0.27451 1.6569,-0.32653 1.0872,-0.69066 1.6311,-1.38966 2.9883,-3.84031 1.4079,-2.5424 1.9399,-3.17772 3.9724,-4.74388 0.9506,-0.73257 2.3505,-1.82629 3.1109,-2.4305 1.0956,-0.87066 1.3588,-1.00828 1.2687,-0.66343 -0.07,0.26711 -0.022,0.43511 0.1248,0.43511 0.4544,0 2.5953,-0.91436 2.6706,-1.14062 0.1179,-0.35371 -2.0573,-0.71894 -3.6662,-0.61562 -1.2352,0.0793 -1.6727,0.22272 -3.2054,1.05067 -3.6017,1.94559 -6.2034,4.0442 -11.1715,9.01109 -3.5752,3.57439 -6.3917,5.97103 -7.8152,6.65032 -0.4636,0.22122 -0.8128,0.68494 -1.3751,1.82641 -1.0931,2.21853 -3.0446,5.40238 -4.8971,7.98945 -1.7508,2.44501 -2.1266,3.29082 -0.766,1.72404 0.4675,-0.53834 1.885,-2.06169 3.15,-3.38523 z m 44.5999,21.89489 c 5.3527,-1.11326 5.9436,-1.19615 9.7,-1.36074 4.2179,-0.18482 4.7554,-0.29448 7.2928,-1.48781 0.813,-0.38233 1.1318,-0.45186 1.2448,-0.27144 0.1967,0.31405 1.5729,-0.43596 4.2623,-2.3229 1.1,-0.77177 2.6555,-1.75804 3.4567,-2.19172 1.2073,-0.65351 1.5767,-0.76599 2.1575,-0.65697 0.62,0.11641 0.8036,0.0408 1.5955,-0.65662 2.1947,-1.93319 4.0687,-2.82685 5.9403,-2.83278 0.5565,-0.002 0.75,0.0806 0.75,0.31924 0,0.20365 0.11,0.27936 0.3,0.20641 0.5576,-0.21411 0.305,0.0308 -1.1289,1.09449 -1.6602,1.23157 -1.497,1.60137 0.1908,0.43238 1.634,-1.13173 1.6381,-1.13342 1.6381,-0.67573 0,0.26078 -0.6151,0.91557 -1.75,1.86303 -2.5822,2.15565 -4.4106,3.93843 -7.1942,7.01461 L 129.7361,104 H 98.0705 Z m 0.05,-40.74043 c 0.1925,-0.0503 0.5075,-0.0503 0.7,0 0.1925,0.0503 0.035,0.0915 -0.35,0.0915 -0.385,0 -0.5425,-0.0412 -0.35,-0.0915 z"
     id="path12"
     style="fill:#003189;fill-opacity:1;stroke:none;stroke-width:0.2"
     inkscape:connector-curvature="0" />
  <path
     d="m 197.1168,54.50324 c -0.8734,-0.13212 -0.4227,-0.45673 0.6342,-0.45673 1.0603,0 1.6192,-0.4073 1.6192,-1.18001 0,-0.3633 -0.079,-0.42293 -0.4178,-0.31534 -0.2922,0.0928 -0.5003,0.0147 -0.6926,-0.25995 -0.1795,-0.25651 -0.6137,-0.43761 -1.2523,-0.52239 -1.1408,-0.15143 -2.9883,-1.25361 -2.657,-1.58511 0.1131,-0.1132 0.7004,-0.24688 1.3051,-0.29706 1.0422,-0.0865 1.1112,-0.12649 1.3226,-0.76764 0.1583,-0.47989 0.3784,-0.71293 0.7576,-0.80215 0.2939,-0.0692 0.7594,-0.33319 1.0344,-0.58672 0.275,-0.25353 1.175,-0.90155 2,-1.44005 1.387,-0.90533 2.2463,-1.87038 1.9391,-2.17777 -0.3237,-0.32386 -3.3268,-0.67631 -4.7391,-0.55617 -1.6407,0.13955 -4.4676,0.73592 -5.65,1.1919 -1.2136,0.46804 -0.8588,0.0605 0.8086,-0.92899 2.2509,-1.33568 6.584,-2.58105 8.9803,-2.58105 0.9297,0 4.0406,0.73521 4.4111,1.04249 0.7258,0.60191 -0.066,2.71487 -1.4122,3.76904 l -0.5622,0.44019 0.4622,0.4932 0.4622,0.4932 -0.4721,0.38327 c -0.2597,0.21079 -0.6154,0.38326 -0.7905,0.38326 -0.1751,0 -0.6086,0.28151 -0.9633,0.62558 -0.546,0.52955 -0.6166,0.70053 -0.4595,1.11383 0.1216,0.32004 0.1097,0.63001 -0.035,0.89969 -0.1347,0.25187 -0.1684,0.82456 -0.087,1.47674 0.1662,1.3314 -0.074,1.80837 -1.0453,2.0784 -0.7206,0.20024 -3.3587,0.23912 -4.5011,0.0663 z"
     id="path14"
     style="fill:#7f7f7f;stroke:none;stroke-width:0.2"
     inkscape:connector-curvature="0" />
</svg>
